{
    "asset": {
        "generator": "https://3dviewer.net",
        "version": "2.0"
    },
    "scene": 0,
    "scenes": [
        {
            "nodes": [
                0
            ]
        }
    ],
    "nodes": [
        {
            "mesh": 0
        }
    ],
    "materials": [
        {
            "name": "000data",
            "pbrMetallicRoughness": {
                "baseColorFactor": [
                    0.6038273388475408,
                    0.6038273388475408,
                    0.6038273388475408,
                    1
                ]
            },
            "emissiveFactor": [
                0,
                0,
                0
            ],
            "doubleSided": true,
            "alphaMode": "OPAQUE"
        }
    ],
    "meshes": [
        {
            "name": "OBJ0001",
            "primitives": [
                {
                    "attributes": {
                        "POSITION": 1,
                        "NORMAL": 2,
                        "TEXCOORD_0": 3
                    },
                    "mode": 4,
                    "material": 0,
                    "indices": 0
                }
            ]
        }
    ],
    "buffers": [
        {
            "uri": "model.bin",
            "byteLength": 905904
        }
    ],
    "bufferViews": [
        {
            "buffer": 0,
            "byteOffset": 0,
            "byteLength": 249168
        },
        {
            "buffer": 0,
            "byteOffset": 249168,
            "byteLength": 246276
        },
        {
            "buffer": 0,
            "byteOffset": 495444,
            "byteLength": 246276
        },
        {
            "buffer": 0,
            "byteOffset": 741720,
            "byteLength": 164184
        }
    ],
    "accessors": [
        {
            "bufferView": 0,
            "byteOffset": 0,
            "componentType": 5125,
            "count": 62292,
            "type": "SCALAR"
        },
        {
            "bufferView": 1,
            "byteOffset": 0,
            "componentType": 5126,
            "count": 20523,
            "min": [
                -5.259997367858887,
                -0.30390599370002747,
                -0.8059484958648682
            ],
            "max": [
                3.367861032485962,
                0.3665764331817627,
                1.4320099353790283
            ],
            "type": "VEC3"
        },
        {
            "bufferView": 2,
            "byteOffset": 0,
            "componentType": 5126,
            "count": 20523,
            "type": "VEC3"
        },
        {
            "bufferView": 3,
            "byteOffset": 0,
            "componentType": 5126,
            "count": 20523,
            "type": "VEC2"
        }
    ]
}